<mxfile host="app.diagrams.net" modified="2021-06-09T01:30:16.781Z" agent="5.0 (X11; Linux x86_64) AppleWebKit/537.36 (KHTML, like Gecko) Chrome/90.0.4430.85 Safari/537.36" etag="dcgmhYEbUZsJbX_r_DJn" version="14.7.2" type="github">
  <diagram id="C5RBs43oDa-KdzZeNtuy" name="Page-1">
    <mxGraphModel dx="2889" dy="2197" grid="1" gridSize="10" guides="1" tooltips="1" connect="1" arrows="1" fold="1" page="1" pageScale="1" pageWidth="827" pageHeight="1169" math="0" shadow="0">
      <root>
        <mxCell id="WIyWlLk6GJQsqaUBKTNV-0" />
        <mxCell id="WIyWlLk6GJQsqaUBKTNV-1" parent="WIyWlLk6GJQsqaUBKTNV-0" />
        <mxCell id="eUzAyZnh72-U9IO2z-T2-43" style="edgeStyle=orthogonalEdgeStyle;rounded=0;orthogonalLoop=1;jettySize=auto;html=1;exitX=0.5;exitY=0;exitDx=0;exitDy=0;entryX=0.5;entryY=1;entryDx=0;entryDy=0;endArrow=block;endFill=0;strokeWidth=1;jumpSize=6;" parent="WIyWlLk6GJQsqaUBKTNV-1" edge="1">
          <mxGeometry relative="1" as="geometry">
            <mxPoint x="815" y="136" as="targetPoint" />
          </mxGeometry>
        </mxCell>
        <mxCell id="d6Ak8WatT1hv87xGQhPb-93" value="Dali" style="shape=folder;fontStyle=1;tabWidth=110;tabHeight=30;tabPosition=left;html=1;boundedLbl=1;labelInHeader=1;container=1;collapsible=0;recursiveResize=0;" parent="WIyWlLk6GJQsqaUBKTNV-1" vertex="1">
          <mxGeometry x="-360" y="-710" width="2480" height="1440" as="geometry" />
        </mxCell>
        <mxCell id="eUzAyZnh72-U9IO2z-T2-70" value="Dali::Adaptor" style="shape=folder;fontStyle=1;tabWidth=110;tabHeight=30;tabPosition=left;html=1;boundedLbl=1;labelInHeader=1;container=1;collapsible=0;recursiveResize=0;" parent="d6Ak8WatT1hv87xGQhPb-93" vertex="1">
          <mxGeometry x="530" y="60" width="1910" height="1333" as="geometry" />
        </mxCell>
        <mxCell id="zkfFHV4jXpPFQw0GAbJ--0" value="CanvasRenderer : BaseHandle" style="swimlane;fontStyle=2;align=center;verticalAlign=top;childLayout=stackLayout;horizontal=1;startSize=26;horizontalStack=0;resizeParent=1;resizeLast=0;collapsible=1;marginBottom=0;rounded=0;shadow=0;strokeWidth=1;" parent="eUzAyZnh72-U9IO2z-T2-70" vertex="1">
          <mxGeometry x="20" y="40" width="362.5" height="268" as="geometry">
            <mxRectangle x="230" y="140" width="160" height="26" as="alternateBounds" />
          </mxGeometry>
        </mxCell>
        <mxCell id="zkfFHV4jXpPFQw0GAbJ--5" value="+New(Vector2 viewBox):CanvasRenderer" style="text;align=left;verticalAlign=top;spacingLeft=4;spacingRight=4;overflow=hidden;rotatable=0;points=[[0,0.5],[1,0.5]];portConstraint=eastwest;" parent="zkfFHV4jXpPFQw0GAbJ--0" vertex="1">
          <mxGeometry y="26" width="362.5" height="26" as="geometry" />
        </mxCell>
        <mxCell id="eUzAyZnh72-U9IO2z-T2-1" value="+CanvasRenderer()" style="text;align=left;verticalAlign=top;spacingLeft=4;spacingRight=4;overflow=hidden;rotatable=0;points=[[0,0.5],[1,0.5]];portConstraint=eastwest;" parent="zkfFHV4jXpPFQw0GAbJ--0" vertex="1">
          <mxGeometry y="52" width="362.5" height="26" as="geometry" />
        </mxCell>
        <mxCell id="d6Ak8WatT1hv87xGQhPb-125" value="+~CanvasRenderer()" style="text;align=left;verticalAlign=top;spacingLeft=4;spacingRight=4;overflow=hidden;rotatable=0;points=[[0,0.5],[1,0.5]];portConstraint=eastwest;" parent="zkfFHV4jXpPFQw0GAbJ--0" vertex="1">
          <mxGeometry y="78" width="362.5" height="26" as="geometry" />
        </mxCell>
        <mxCell id="d6Ak8WatT1hv87xGQhPb-127" value="+Commit():bool" style="text;align=left;verticalAlign=top;spacingLeft=4;spacingRight=4;overflow=hidden;rotatable=0;points=[[0,0.5],[1,0.5]];portConstraint=eastwest;" parent="zkfFHV4jXpPFQw0GAbJ--0" vertex="1">
          <mxGeometry y="104" width="362.5" height="26" as="geometry" />
        </mxCell>
        <mxCell id="d6Ak8WatT1hv87xGQhPb-126" value="+AddDrawable(Dali::CavasRenderer::Drawable drawable):void" style="text;align=left;verticalAlign=top;spacingLeft=4;spacingRight=4;overflow=hidden;rotatable=0;points=[[0,0.5],[1,0.5]];portConstraint=eastwest;" parent="zkfFHV4jXpPFQw0GAbJ--0" vertex="1">
          <mxGeometry y="130" width="362.5" height="26" as="geometry" />
        </mxCell>
        <mxCell id="d6Ak8WatT1hv87xGQhPb-128" value="+GetPxelBuffer():Devel::PixelBuffer" style="text;align=left;verticalAlign=top;spacingLeft=4;spacingRight=4;overflow=hidden;rotatable=0;points=[[0,0.5],[1,0.5]];portConstraint=eastwest;" parent="zkfFHV4jXpPFQw0GAbJ--0" vertex="1">
          <mxGeometry y="156" width="362.5" height="26" as="geometry" />
        </mxCell>
        <mxCell id="d6Ak8WatT1hv87xGQhPb-129" value="+SetSize(Vector2 size):bool" style="text;align=left;verticalAlign=top;spacingLeft=4;spacingRight=4;overflow=hidden;rotatable=0;points=[[0,0.5],[1,0.5]];portConstraint=eastwest;" parent="zkfFHV4jXpPFQw0GAbJ--0" vertex="1">
          <mxGeometry y="182" width="362.5" height="26" as="geometry" />
        </mxCell>
        <mxCell id="d6Ak8WatT1hv87xGQhPb-130" value="+GetSize():Vector2" style="text;align=left;verticalAlign=top;spacingLeft=4;spacingRight=4;overflow=hidden;rotatable=0;points=[[0,0.5],[1,0.5]];portConstraint=eastwest;" parent="zkfFHV4jXpPFQw0GAbJ--0" vertex="1">
          <mxGeometry y="208" width="362.5" height="26" as="geometry" />
        </mxCell>
        <mxCell id="d6Ak8WatT1hv87xGQhPb-148" value="CanvasRenderer::Drawable : BaseHandle" style="swimlane;fontStyle=2;align=center;verticalAlign=top;childLayout=stackLayout;horizontal=1;startSize=26;horizontalStack=0;resizeParent=1;resizeLast=0;collapsible=1;marginBottom=0;rounded=0;shadow=0;strokeWidth=1;" parent="eUzAyZnh72-U9IO2z-T2-70" vertex="1">
          <mxGeometry x="500" y="44" width="362.5" height="312" as="geometry">
            <mxRectangle x="230" y="140" width="160" height="26" as="alternateBounds" />
          </mxGeometry>
        </mxCell>
        <mxCell id="d6Ak8WatT1hv87xGQhPb-151" value="+Drawable()" style="text;align=left;verticalAlign=top;spacingLeft=4;spacingRight=4;overflow=hidden;rotatable=0;points=[[0,0.5],[1,0.5]];portConstraint=eastwest;" parent="d6Ak8WatT1hv87xGQhPb-148" vertex="1">
          <mxGeometry y="26" width="362.5" height="26" as="geometry" />
        </mxCell>
        <mxCell id="d6Ak8WatT1hv87xGQhPb-152" value="+~Drawable()" style="text;align=left;verticalAlign=top;spacingLeft=4;spacingRight=4;overflow=hidden;rotatable=0;points=[[0,0.5],[1,0.5]];portConstraint=eastwest;" parent="d6Ak8WatT1hv87xGQhPb-148" vertex="1">
          <mxGeometry y="52" width="362.5" height="26" as="geometry" />
        </mxCell>
        <mxCell id="d6Ak8WatT1hv87xGQhPb-154" value="+SetOpacity(float opacity):bool" style="text;align=left;verticalAlign=top;spacingLeft=4;spacingRight=4;overflow=hidden;rotatable=0;points=[[0,0.5],[1,0.5]];portConstraint=eastwest;" parent="d6Ak8WatT1hv87xGQhPb-148" vertex="1">
          <mxGeometry y="78" width="362.5" height="26" as="geometry" />
        </mxCell>
        <mxCell id="d6Ak8WatT1hv87xGQhPb-155" value="+GetOpacity():float" style="text;align=left;verticalAlign=top;spacingLeft=4;spacingRight=4;overflow=hidden;rotatable=0;points=[[0,0.5],[1,0.5]];portConstraint=eastwest;" parent="d6Ak8WatT1hv87xGQhPb-148" vertex="1">
          <mxGeometry y="104" width="362.5" height="26" as="geometry" />
        </mxCell>
        <mxCell id="d6Ak8WatT1hv87xGQhPb-156" value="+Rotate(Degree degree):bool" style="text;align=left;verticalAlign=top;spacingLeft=4;spacingRight=4;overflow=hidden;rotatable=0;points=[[0,0.5],[1,0.5]];portConstraint=eastwest;" parent="d6Ak8WatT1hv87xGQhPb-148" vertex="1">
          <mxGeometry y="130" width="362.5" height="26" as="geometry" />
        </mxCell>
        <mxCell id="d6Ak8WatT1hv87xGQhPb-157" value="+Scale(float factor):bool" style="text;align=left;verticalAlign=top;spacingLeft=4;spacingRight=4;overflow=hidden;rotatable=0;points=[[0,0.5],[1,0.5]];portConstraint=eastwest;" parent="d6Ak8WatT1hv87xGQhPb-148" vertex="1">
          <mxGeometry y="156" width="362.5" height="26" as="geometry" />
        </mxCell>
        <mxCell id="d6Ak8WatT1hv87xGQhPb-158" value="+Translate(Vector2 translate):bool" style="text;align=left;verticalAlign=top;spacingLeft=4;spacingRight=4;overflow=hidden;rotatable=0;points=[[0,0.5],[1,0.5]];portConstraint=eastwest;" parent="d6Ak8WatT1hv87xGQhPb-148" vertex="1">
          <mxGeometry y="182" width="362.5" height="26" as="geometry" />
        </mxCell>
        <mxCell id="d6Ak8WatT1hv87xGQhPb-159" value="+Transform(Dali::Matrix3 matrix):bool" style="text;align=left;verticalAlign=top;spacingLeft=4;spacingRight=4;overflow=hidden;rotatable=0;points=[[0,0.5],[1,0.5]];portConstraint=eastwest;" parent="d6Ak8WatT1hv87xGQhPb-148" vertex="1">
          <mxGeometry y="208" width="362.5" height="26" as="geometry" />
        </mxCell>
        <mxCell id="8q--UgSvbUHU4zD4hHSI-37" value="+GetBoundingBox():Rect&lt;float&gt;" style="text;align=left;verticalAlign=top;spacingLeft=4;spacingRight=4;overflow=hidden;rotatable=0;points=[[0,0.5],[1,0.5]];portConstraint=eastwest;" vertex="1" parent="d6Ak8WatT1hv87xGQhPb-148">
          <mxGeometry y="234" width="362.5" height="26" as="geometry" />
        </mxCell>
        <mxCell id="8q--UgSvbUHU4zD4hHSI-44" value="+Composite(Drawable &amp;drawable, CompositeType type):bool" style="text;align=left;verticalAlign=top;spacingLeft=4;spacingRight=4;overflow=hidden;rotatable=0;points=[[0,0.5],[1,0.5]];portConstraint=eastwest;" vertex="1" parent="d6Ak8WatT1hv87xGQhPb-148">
          <mxGeometry y="260" width="362.5" height="26" as="geometry" />
        </mxCell>
        <mxCell id="8q--UgSvbUHU4zD4hHSI-38" style="edgeStyle=orthogonalEdgeStyle;rounded=0;orthogonalLoop=1;jettySize=auto;html=1;endArrow=block;endFill=0;" edge="1" parent="eUzAyZnh72-U9IO2z-T2-70" source="d6Ak8WatT1hv87xGQhPb-382" target="d6Ak8WatT1hv87xGQhPb-148">
          <mxGeometry relative="1" as="geometry">
            <Array as="points">
              <mxPoint x="681" y="380" />
              <mxPoint x="681" y="380" />
            </Array>
          </mxGeometry>
        </mxCell>
        <mxCell id="d6Ak8WatT1hv87xGQhPb-382" value="CanvasRenderer::Shape : CanvasRnederer::Drawable" style="swimlane;fontStyle=2;align=center;verticalAlign=top;childLayout=stackLayout;horizontal=1;startSize=26;horizontalStack=0;resizeParent=1;resizeLast=0;collapsible=1;marginBottom=0;rounded=0;shadow=0;strokeWidth=1;" parent="eUzAyZnh72-U9IO2z-T2-70" vertex="1">
          <mxGeometry x="460" y="404" width="460" height="826" as="geometry">
            <mxRectangle x="230" y="140" width="160" height="26" as="alternateBounds" />
          </mxGeometry>
        </mxCell>
        <mxCell id="d6Ak8WatT1hv87xGQhPb-781" value="+New():Dali:Adaptor:Shape" style="text;align=left;verticalAlign=top;spacingLeft=4;spacingRight=4;overflow=hidden;rotatable=0;points=[[0,0.5],[1,0.5]];portConstraint=eastwest;" parent="d6Ak8WatT1hv87xGQhPb-382" vertex="1">
          <mxGeometry y="26" width="460" height="26" as="geometry" />
        </mxCell>
        <mxCell id="d6Ak8WatT1hv87xGQhPb-383" value="+Shape()" style="text;align=left;verticalAlign=top;spacingLeft=4;spacingRight=4;overflow=hidden;rotatable=0;points=[[0,0.5],[1,0.5]];portConstraint=eastwest;" parent="d6Ak8WatT1hv87xGQhPb-382" vertex="1">
          <mxGeometry y="52" width="460" height="26" as="geometry" />
        </mxCell>
        <mxCell id="d6Ak8WatT1hv87xGQhPb-384" value="+~Shape()" style="text;align=left;verticalAlign=top;spacingLeft=4;spacingRight=4;overflow=hidden;rotatable=0;points=[[0,0.5],[1,0.5]];portConstraint=eastwest;" parent="d6Ak8WatT1hv87xGQhPb-382" vertex="1">
          <mxGeometry y="78" width="460" height="26" as="geometry" />
        </mxCell>
        <mxCell id="d6Ak8WatT1hv87xGQhPb-386" value="+AddRect(Rect&lt;float&gt; rect, Vector2 roundedCorner):bool" style="text;align=left;verticalAlign=top;spacingLeft=4;spacingRight=4;overflow=hidden;rotatable=0;points=[[0,0.5],[1,0.5]];portConstraint=eastwest;" parent="d6Ak8WatT1hv87xGQhPb-382" vertex="1">
          <mxGeometry y="104" width="460" height="26" as="geometry" />
        </mxCell>
        <mxCell id="d6Ak8WatT1hv87xGQhPb-387" value="+AddCircle(Vector2 center, Vector2 radius):bool" style="text;align=left;verticalAlign=top;spacingLeft=4;spacingRight=4;overflow=hidden;rotatable=0;points=[[0,0.5],[1,0.5]];portConstraint=eastwest;" parent="d6Ak8WatT1hv87xGQhPb-382" vertex="1">
          <mxGeometry y="130" width="460" height="26" as="geometry" />
        </mxCell>
        <mxCell id="d6Ak8WatT1hv87xGQhPb-388" value="+AddArc(Vector2 center, float radius, float startAngle, float sweep, bool pie):bool" style="text;align=left;verticalAlign=top;spacingLeft=4;spacingRight=4;overflow=hidden;rotatable=0;points=[[0,0.5],[1,0.5]];portConstraint=eastwest;" parent="d6Ak8WatT1hv87xGQhPb-382" vertex="1">
          <mxGeometry y="156" width="460" height="26" as="geometry" />
        </mxCell>
        <mxCell id="d6Ak8WatT1hv87xGQhPb-389" value="+AddMoveTo(Vector2 point):bool" style="text;align=left;verticalAlign=top;spacingLeft=4;spacingRight=4;overflow=hidden;rotatable=0;points=[[0,0.5],[1,0.5]];portConstraint=eastwest;" parent="d6Ak8WatT1hv87xGQhPb-382" vertex="1">
          <mxGeometry y="182" width="460" height="26" as="geometry" />
        </mxCell>
        <mxCell id="d6Ak8WatT1hv87xGQhPb-390" value="+AddLineTo(Vector2 line):bool" style="text;align=left;verticalAlign=top;spacingLeft=4;spacingRight=4;overflow=hidden;rotatable=0;points=[[0,0.5],[1,0.5]];portConstraint=eastwest;" parent="d6Ak8WatT1hv87xGQhPb-382" vertex="1">
          <mxGeometry y="208" width="460" height="26" as="geometry" />
        </mxCell>
        <mxCell id="d6Ak8WatT1hv87xGQhPb-391" value="+AddCubicTo(Vector2 controlPoint1, Vector2 controlPoint2, Vector2 endPoint):bool" style="text;align=left;verticalAlign=top;spacingLeft=4;spacingRight=4;overflow=hidden;rotatable=0;points=[[0,0.5],[1,0.5]];portConstraint=eastwest;" parent="d6Ak8WatT1hv87xGQhPb-382" vertex="1">
          <mxGeometry y="234" width="460" height="26" as="geometry" />
        </mxCell>
        <mxCell id="2J2DLM0OzAeDPoUzJUyp-0" value="+ResetPath():bool" style="text;align=left;verticalAlign=top;spacingLeft=4;spacingRight=4;overflow=hidden;rotatable=0;points=[[0,0.5],[1,0.5]];portConstraint=eastwest;" parent="d6Ak8WatT1hv87xGQhPb-382" vertex="1">
          <mxGeometry y="260" width="460" height="26" as="geometry" />
        </mxCell>
        <mxCell id="d6Ak8WatT1hv87xGQhPb-392" value="+Close():bool" style="text;align=left;verticalAlign=top;spacingLeft=4;spacingRight=4;overflow=hidden;rotatable=0;points=[[0,0.5],[1,0.5]];portConstraint=eastwest;" parent="d6Ak8WatT1hv87xGQhPb-382" vertex="1">
          <mxGeometry y="286" width="460" height="26" as="geometry" />
        </mxCell>
        <mxCell id="d6Ak8WatT1hv87xGQhPb-396" value="+SetFillColor(Vector4 color):bool" style="text;align=left;verticalAlign=top;spacingLeft=4;spacingRight=4;overflow=hidden;rotatable=0;points=[[0,0.5],[1,0.5]];portConstraint=eastwest;" parent="d6Ak8WatT1hv87xGQhPb-382" vertex="1">
          <mxGeometry y="312" width="460" height="26" as="geometry" />
        </mxCell>
        <mxCell id="d6Ak8WatT1hv87xGQhPb-395" value="+GetFillColor():Vector4" style="text;align=left;verticalAlign=top;spacingLeft=4;spacingRight=4;overflow=hidden;rotatable=0;points=[[0,0.5],[1,0.5]];portConstraint=eastwest;" parent="d6Ak8WatT1hv87xGQhPb-382" vertex="1">
          <mxGeometry y="338" width="460" height="26" as="geometry" />
        </mxCell>
        <mxCell id="d6Ak8WatT1hv87xGQhPb-398" value="+SetFillRule(CanvasRenderer::Shape::FillRule rule):bool" style="text;align=left;verticalAlign=top;spacingLeft=4;spacingRight=4;overflow=hidden;rotatable=0;points=[[0,0.5],[1,0.5]];portConstraint=eastwest;" parent="d6Ak8WatT1hv87xGQhPb-382" vertex="1">
          <mxGeometry y="364" width="460" height="26" as="geometry" />
        </mxCell>
        <mxCell id="d6Ak8WatT1hv87xGQhPb-400" value="+GetFillRule():CanvasRenderer::Shape::FillRule" style="text;align=left;verticalAlign=top;spacingLeft=4;spacingRight=4;overflow=hidden;rotatable=0;points=[[0,0.5],[1,0.5]];portConstraint=eastwest;" parent="d6Ak8WatT1hv87xGQhPb-382" vertex="1">
          <mxGeometry y="390" width="460" height="26" as="geometry" />
        </mxCell>
        <mxCell id="d6Ak8WatT1hv87xGQhPb-394" value="+SetStrokeWidth(float width):bool" style="text;align=left;verticalAlign=top;spacingLeft=4;spacingRight=4;overflow=hidden;rotatable=0;points=[[0,0.5],[1,0.5]];portConstraint=eastwest;" parent="d6Ak8WatT1hv87xGQhPb-382" vertex="1">
          <mxGeometry y="416" width="460" height="26" as="geometry" />
        </mxCell>
        <mxCell id="d6Ak8WatT1hv87xGQhPb-399" value="+GetStrokeWidth():float" style="text;align=left;verticalAlign=top;spacingLeft=4;spacingRight=4;overflow=hidden;rotatable=0;points=[[0,0.5],[1,0.5]];portConstraint=eastwest;" parent="d6Ak8WatT1hv87xGQhPb-382" vertex="1">
          <mxGeometry y="442" width="460" height="26" as="geometry" />
        </mxCell>
        <mxCell id="d6Ak8WatT1hv87xGQhPb-401" value="+SetStrokeColor(Vector4 color):bool" style="text;align=left;verticalAlign=top;spacingLeft=4;spacingRight=4;overflow=hidden;rotatable=0;points=[[0,0.5],[1,0.5]];portConstraint=eastwest;" parent="d6Ak8WatT1hv87xGQhPb-382" vertex="1">
          <mxGeometry y="468" width="460" height="26" as="geometry" />
        </mxCell>
        <mxCell id="d6Ak8WatT1hv87xGQhPb-405" value="+GetStrokeColor():Vector4" style="text;align=left;verticalAlign=top;spacingLeft=4;spacingRight=4;overflow=hidden;rotatable=0;points=[[0,0.5],[1,0.5]];portConstraint=eastwest;" parent="d6Ak8WatT1hv87xGQhPb-382" vertex="1">
          <mxGeometry y="494" width="460" height="26" as="geometry" />
        </mxCell>
        <mxCell id="d6Ak8WatT1hv87xGQhPb-406" value="+SetStrokeDash(Dali::Vector&lt;float&gt; dashPattern):bool" style="text;align=left;verticalAlign=top;spacingLeft=4;spacingRight=4;overflow=hidden;rotatable=0;points=[[0,0.5],[1,0.5]];portConstraint=eastwest;" parent="d6Ak8WatT1hv87xGQhPb-382" vertex="1">
          <mxGeometry y="520" width="460" height="26" as="geometry" />
        </mxCell>
        <mxCell id="d6Ak8WatT1hv87xGQhPb-403" value="+GetStrokeDash():Dali::Vector&lt;float&gt;" style="text;align=left;verticalAlign=top;spacingLeft=4;spacingRight=4;overflow=hidden;rotatable=0;points=[[0,0.5],[1,0.5]];portConstraint=eastwest;" parent="d6Ak8WatT1hv87xGQhPb-382" vertex="1">
          <mxGeometry y="546" width="460" height="26" as="geometry" />
        </mxCell>
        <mxCell id="d6Ak8WatT1hv87xGQhPb-404" value="+SetStrokeCap(CanvasRenderer::Shape::StrokeCap cap):bool" style="text;align=left;verticalAlign=top;spacingLeft=4;spacingRight=4;overflow=hidden;rotatable=0;points=[[0,0.5],[1,0.5]];portConstraint=eastwest;" parent="d6Ak8WatT1hv87xGQhPb-382" vertex="1">
          <mxGeometry y="572" width="460" height="26" as="geometry" />
        </mxCell>
        <mxCell id="d6Ak8WatT1hv87xGQhPb-397" value="+GetStrokeCap():CanvasRenderer::Shape::StrokeCap" style="text;align=left;verticalAlign=top;spacingLeft=4;spacingRight=4;overflow=hidden;rotatable=0;points=[[0,0.5],[1,0.5]];portConstraint=eastwest;" parent="d6Ak8WatT1hv87xGQhPb-382" vertex="1">
          <mxGeometry y="598" width="460" height="26" as="geometry" />
        </mxCell>
        <mxCell id="d6Ak8WatT1hv87xGQhPb-402" value="+SetStrokeJoin(CanvasRenderer::Shape::StrokeJoin join):bool" style="text;align=left;verticalAlign=top;spacingLeft=4;spacingRight=4;overflow=hidden;rotatable=0;points=[[0,0.5],[1,0.5]];portConstraint=eastwest;" parent="d6Ak8WatT1hv87xGQhPb-382" vertex="1">
          <mxGeometry y="624" width="460" height="26" as="geometry" />
        </mxCell>
        <mxCell id="d6Ak8WatT1hv87xGQhPb-393" value="+GetStrokeJoin():CanvasRenderer::Shape::StrokeJoin" style="text;align=left;verticalAlign=top;spacingLeft=4;spacingRight=4;overflow=hidden;rotatable=0;points=[[0,0.5],[1,0.5]];portConstraint=eastwest;" parent="d6Ak8WatT1hv87xGQhPb-382" vertex="1">
          <mxGeometry y="650" width="460" height="26" as="geometry" />
        </mxCell>
        <mxCell id="8q--UgSvbUHU4zD4hHSI-84" value="+SetFill(CanvasRenderer::Fill fill):bool&#xa;+SetStrokeFill(CanvasRenderer::Fill fill):bool" style="text;align=left;verticalAlign=top;spacingLeft=4;spacingRight=4;overflow=hidden;rotatable=0;points=[[0,0.5],[1,0.5]];portConstraint=eastwest;" vertex="1" parent="d6Ak8WatT1hv87xGQhPb-382">
          <mxGeometry y="676" width="460" height="44" as="geometry" />
        </mxCell>
        <mxCell id="8q--UgSvbUHU4zD4hHSI-105" value="+AddPath(CanvasRenderer::Shape::PathCommand* commands, int commandCount,&#xa;                 float* points, int pointCount):bool" style="text;align=left;verticalAlign=top;spacingLeft=4;spacingRight=4;overflow=hidden;rotatable=0;points=[[0,0.5],[1,0.5]];portConstraint=eastwest;" vertex="1" parent="d6Ak8WatT1hv87xGQhPb-382">
          <mxGeometry y="720" width="460" height="40" as="geometry" />
        </mxCell>
        <mxCell id="8q--UgSvbUHU4zD4hHSI-236" value="+GetPathCommands(CanvasRenderer::Shape::PathCommand** commands):int" style="text;align=left;verticalAlign=top;spacingLeft=4;spacingRight=4;overflow=hidden;rotatable=0;points=[[0,0.5],[1,0.5]];portConstraint=eastwest;" vertex="1" parent="d6Ak8WatT1hv87xGQhPb-382">
          <mxGeometry y="760" width="460" height="30" as="geometry" />
        </mxCell>
        <mxCell id="8q--UgSvbUHU4zD4hHSI-237" value="+GetPathPoints(float** points):int" style="text;align=left;verticalAlign=top;spacingLeft=4;spacingRight=4;overflow=hidden;rotatable=0;points=[[0,0.5],[1,0.5]];portConstraint=eastwest;" vertex="1" parent="d6Ak8WatT1hv87xGQhPb-382">
          <mxGeometry y="790" width="460" height="30" as="geometry" />
        </mxCell>
        <mxCell id="d6Ak8WatT1hv87xGQhPb-1189" style="edgeStyle=orthogonalEdgeStyle;rounded=0;orthogonalLoop=1;jettySize=auto;html=1;endArrow=circlePlus;endFill=0;fontSize=16;" parent="eUzAyZnh72-U9IO2z-T2-70" source="d6Ak8WatT1hv87xGQhPb-1176" target="d6Ak8WatT1hv87xGQhPb-382" edge="1">
          <mxGeometry relative="1" as="geometry" />
        </mxCell>
        <mxCell id="d6Ak8WatT1hv87xGQhPb-1176" value="&lt;&lt;enumeration&gt;&gt;&#xa;FillRule" style="swimlane;fontStyle=2;align=center;verticalAlign=top;childLayout=stackLayout;horizontal=1;startSize=45;horizontalStack=0;resizeParent=1;resizeLast=0;collapsible=1;marginBottom=0;rounded=0;shadow=0;strokeWidth=1;" parent="eUzAyZnh72-U9IO2z-T2-70" vertex="1">
          <mxGeometry x="978.75" y="520" width="120" height="110" as="geometry">
            <mxRectangle x="230" y="140" width="160" height="26" as="alternateBounds" />
          </mxGeometry>
        </mxCell>
        <mxCell id="d6Ak8WatT1hv87xGQhPb-1177" value="Winding" style="text;align=left;verticalAlign=top;spacingLeft=4;spacingRight=4;overflow=hidden;rotatable=0;points=[[0,0.5],[1,0.5]];portConstraint=eastwest;" parent="d6Ak8WatT1hv87xGQhPb-1176" vertex="1">
          <mxGeometry y="45" width="120" height="26" as="geometry" />
        </mxCell>
        <mxCell id="d6Ak8WatT1hv87xGQhPb-1178" value="EvenOdd" style="text;align=left;verticalAlign=top;spacingLeft=4;spacingRight=4;overflow=hidden;rotatable=0;points=[[0,0.5],[1,0.5]];portConstraint=eastwest;" parent="d6Ak8WatT1hv87xGQhPb-1176" vertex="1">
          <mxGeometry y="71" width="120" height="26" as="geometry" />
        </mxCell>
        <mxCell id="d6Ak8WatT1hv87xGQhPb-1190" style="edgeStyle=orthogonalEdgeStyle;rounded=0;orthogonalLoop=1;jettySize=auto;html=1;endArrow=circlePlus;endFill=0;fontSize=16;" parent="eUzAyZnh72-U9IO2z-T2-70" source="d6Ak8WatT1hv87xGQhPb-1180" target="d6Ak8WatT1hv87xGQhPb-382" edge="1">
          <mxGeometry relative="1" as="geometry" />
        </mxCell>
        <mxCell id="d6Ak8WatT1hv87xGQhPb-1180" value="&lt;&lt;enumeration&gt;&gt;&#xa;StrokeCap" style="swimlane;fontStyle=2;align=center;verticalAlign=top;childLayout=stackLayout;horizontal=1;startSize=45;horizontalStack=0;resizeParent=1;resizeLast=0;collapsible=1;marginBottom=0;rounded=0;shadow=0;strokeWidth=1;" parent="eUzAyZnh72-U9IO2z-T2-70" vertex="1">
          <mxGeometry x="978.75" y="670" width="120" height="123" as="geometry">
            <mxRectangle x="230" y="140" width="160" height="26" as="alternateBounds" />
          </mxGeometry>
        </mxCell>
        <mxCell id="d6Ak8WatT1hv87xGQhPb-1181" value="Square" style="text;align=left;verticalAlign=top;spacingLeft=4;spacingRight=4;overflow=hidden;rotatable=0;points=[[0,0.5],[1,0.5]];portConstraint=eastwest;" parent="d6Ak8WatT1hv87xGQhPb-1180" vertex="1">
          <mxGeometry y="45" width="120" height="26" as="geometry" />
        </mxCell>
        <mxCell id="d6Ak8WatT1hv87xGQhPb-1182" value="Round" style="text;align=left;verticalAlign=top;spacingLeft=4;spacingRight=4;overflow=hidden;rotatable=0;points=[[0,0.5],[1,0.5]];portConstraint=eastwest;" parent="d6Ak8WatT1hv87xGQhPb-1180" vertex="1">
          <mxGeometry y="71" width="120" height="26" as="geometry" />
        </mxCell>
        <mxCell id="d6Ak8WatT1hv87xGQhPb-1183" value="Butt" style="text;align=left;verticalAlign=top;spacingLeft=4;spacingRight=4;overflow=hidden;rotatable=0;points=[[0,0.5],[1,0.5]];portConstraint=eastwest;" parent="d6Ak8WatT1hv87xGQhPb-1180" vertex="1">
          <mxGeometry y="97" width="120" height="26" as="geometry" />
        </mxCell>
        <mxCell id="d6Ak8WatT1hv87xGQhPb-1191" style="edgeStyle=orthogonalEdgeStyle;rounded=0;orthogonalLoop=1;jettySize=auto;html=1;endArrow=circlePlus;endFill=0;fontSize=16;" parent="eUzAyZnh72-U9IO2z-T2-70" source="d6Ak8WatT1hv87xGQhPb-1185" target="d6Ak8WatT1hv87xGQhPb-382" edge="1">
          <mxGeometry relative="1" as="geometry" />
        </mxCell>
        <mxCell id="d6Ak8WatT1hv87xGQhPb-1185" value="&lt;&lt;enumeration&gt;&gt;&#xa;StrokeJoin" style="swimlane;fontStyle=2;align=center;verticalAlign=top;childLayout=stackLayout;horizontal=1;startSize=45;horizontalStack=0;resizeParent=1;resizeLast=0;collapsible=1;marginBottom=0;rounded=0;shadow=0;strokeWidth=1;" parent="eUzAyZnh72-U9IO2z-T2-70" vertex="1">
          <mxGeometry x="978.75" y="807" width="120" height="123" as="geometry">
            <mxRectangle x="230" y="140" width="160" height="26" as="alternateBounds" />
          </mxGeometry>
        </mxCell>
        <mxCell id="d6Ak8WatT1hv87xGQhPb-1186" value="Bevel" style="text;align=left;verticalAlign=top;spacingLeft=4;spacingRight=4;overflow=hidden;rotatable=0;points=[[0,0.5],[1,0.5]];portConstraint=eastwest;" parent="d6Ak8WatT1hv87xGQhPb-1185" vertex="1">
          <mxGeometry y="45" width="120" height="26" as="geometry" />
        </mxCell>
        <mxCell id="d6Ak8WatT1hv87xGQhPb-1187" value="Round" style="text;align=left;verticalAlign=top;spacingLeft=4;spacingRight=4;overflow=hidden;rotatable=0;points=[[0,0.5],[1,0.5]];portConstraint=eastwest;" parent="d6Ak8WatT1hv87xGQhPb-1185" vertex="1">
          <mxGeometry y="71" width="120" height="26" as="geometry" />
        </mxCell>
        <mxCell id="d6Ak8WatT1hv87xGQhPb-1188" value="Miter" style="text;align=left;verticalAlign=top;spacingLeft=4;spacingRight=4;overflow=hidden;rotatable=0;points=[[0,0.5],[1,0.5]];portConstraint=eastwest;" parent="d6Ak8WatT1hv87xGQhPb-1185" vertex="1">
          <mxGeometry y="97" width="120" height="26" as="geometry" />
        </mxCell>
        <mxCell id="LCj0cPt76p2CiR1PrpzW-5" value="0..*" style="edgeStyle=orthogonalEdgeStyle;rounded=0;orthogonalLoop=1;jettySize=auto;html=1;endArrow=none;endFill=0;" parent="eUzAyZnh72-U9IO2z-T2-70" source="zkfFHV4jXpPFQw0GAbJ--0" target="d6Ak8WatT1hv87xGQhPb-148" edge="1">
          <mxGeometry x="0.8467" y="13" relative="1" as="geometry">
            <mxPoint x="-751" y="169.9955172413795" as="sourcePoint" />
            <mxPoint x="-583.5" y="169.9955172413795" as="targetPoint" />
            <Array as="points" />
            <mxPoint x="1" as="offset" />
          </mxGeometry>
        </mxCell>
        <mxCell id="LCj0cPt76p2CiR1PrpzW-4" value="1" style="edgeStyle=orthogonalEdgeStyle;rounded=0;orthogonalLoop=1;jettySize=auto;html=1;endArrow=none;endFill=0;" parent="eUzAyZnh72-U9IO2z-T2-70" source="zkfFHV4jXpPFQw0GAbJ--0" target="d6Ak8WatT1hv87xGQhPb-148" edge="1">
          <mxGeometry x="-0.9284" y="10" relative="1" as="geometry">
            <mxPoint x="-751" y="169.9955172413795" as="sourcePoint" />
            <mxPoint x="-583.5" y="169.9955172413795" as="targetPoint" />
            <Array as="points" />
            <mxPoint as="offset" />
          </mxGeometry>
        </mxCell>
        <mxCell id="8q--UgSvbUHU4zD4hHSI-36" style="edgeStyle=orthogonalEdgeStyle;rounded=0;orthogonalLoop=1;jettySize=auto;html=1;endArrow=block;endFill=0;exitX=0.5;exitY=0;exitDx=0;exitDy=0;" edge="1" parent="eUzAyZnh72-U9IO2z-T2-70" source="8q--UgSvbUHU4zD4hHSI-10" target="d6Ak8WatT1hv87xGQhPb-148">
          <mxGeometry relative="1" as="geometry" />
        </mxCell>
        <mxCell id="8q--UgSvbUHU4zD4hHSI-10" value="CanvasRenderer::DrawableGroup : CanvasRnederer::Drawable" style="swimlane;fontStyle=2;align=center;verticalAlign=top;childLayout=stackLayout;horizontal=1;startSize=26;horizontalStack=0;resizeParent=1;resizeLast=0;collapsible=1;marginBottom=0;rounded=0;shadow=0;strokeWidth=1;" vertex="1" parent="eUzAyZnh72-U9IO2z-T2-70">
          <mxGeometry x="30" y="404" width="390" height="176" as="geometry">
            <mxRectangle x="230" y="140" width="160" height="26" as="alternateBounds" />
          </mxGeometry>
        </mxCell>
        <mxCell id="8q--UgSvbUHU4zD4hHSI-11" value="+New():Dali:Adaptor:DrawableGroup" style="text;align=left;verticalAlign=top;spacingLeft=4;spacingRight=4;overflow=hidden;rotatable=0;points=[[0,0.5],[1,0.5]];portConstraint=eastwest;" vertex="1" parent="8q--UgSvbUHU4zD4hHSI-10">
          <mxGeometry y="26" width="390" height="26" as="geometry" />
        </mxCell>
        <mxCell id="8q--UgSvbUHU4zD4hHSI-12" value="+DrawableGroup()" style="text;align=left;verticalAlign=top;spacingLeft=4;spacingRight=4;overflow=hidden;rotatable=0;points=[[0,0.5],[1,0.5]];portConstraint=eastwest;" vertex="1" parent="8q--UgSvbUHU4zD4hHSI-10">
          <mxGeometry y="52" width="390" height="26" as="geometry" />
        </mxCell>
        <mxCell id="8q--UgSvbUHU4zD4hHSI-13" value="+~DrawableGroup()" style="text;align=left;verticalAlign=top;spacingLeft=4;spacingRight=4;overflow=hidden;rotatable=0;points=[[0,0.5],[1,0.5]];portConstraint=eastwest;" vertex="1" parent="8q--UgSvbUHU4zD4hHSI-10">
          <mxGeometry y="78" width="390" height="26" as="geometry" />
        </mxCell>
        <mxCell id="8q--UgSvbUHU4zD4hHSI-14" value="+AddDrawable(Drawable&amp; drawable):bool" style="text;align=left;verticalAlign=top;spacingLeft=4;spacingRight=4;overflow=hidden;rotatable=0;points=[[0,0.5],[1,0.5]];portConstraint=eastwest;" vertex="1" parent="8q--UgSvbUHU4zD4hHSI-10">
          <mxGeometry y="104" width="390" height="26" as="geometry" />
        </mxCell>
        <mxCell id="8q--UgSvbUHU4zD4hHSI-15" value="+Clear():bool" style="text;align=left;verticalAlign=top;spacingLeft=4;spacingRight=4;overflow=hidden;rotatable=0;points=[[0,0.5],[1,0.5]];portConstraint=eastwest;" vertex="1" parent="8q--UgSvbUHU4zD4hHSI-10">
          <mxGeometry y="130" width="390" height="26" as="geometry" />
        </mxCell>
        <mxCell id="8q--UgSvbUHU4zD4hHSI-57" value="struct&#xa;ColorStop" style="swimlane;fontStyle=2;align=center;verticalAlign=top;childLayout=stackLayout;horizontal=1;startSize=45;horizontalStack=0;resizeParent=1;resizeLast=0;collapsible=1;marginBottom=0;rounded=0;shadow=0;strokeWidth=1;" vertex="1" parent="eUzAyZnh72-U9IO2z-T2-70">
          <mxGeometry x="1770" y="562.5" width="120" height="107.5" as="geometry">
            <mxRectangle x="230" y="140" width="160" height="26" as="alternateBounds" />
          </mxGeometry>
        </mxCell>
        <mxCell id="8q--UgSvbUHU4zD4hHSI-58" value="color:Vector4" style="text;align=left;verticalAlign=top;spacingLeft=4;spacingRight=4;overflow=hidden;rotatable=0;points=[[0,0.5],[1,0.5]];portConstraint=eastwest;" vertex="1" parent="8q--UgSvbUHU4zD4hHSI-57">
          <mxGeometry y="45" width="120" height="26" as="geometry" />
        </mxCell>
        <mxCell id="8q--UgSvbUHU4zD4hHSI-59" value="offset:float" style="text;align=left;verticalAlign=top;spacingLeft=4;spacingRight=4;overflow=hidden;rotatable=0;points=[[0,0.5],[1,0.5]];portConstraint=eastwest;" vertex="1" parent="8q--UgSvbUHU4zD4hHSI-57">
          <mxGeometry y="71" width="120" height="26" as="geometry" />
        </mxCell>
        <mxCell id="8q--UgSvbUHU4zD4hHSI-68" style="edgeStyle=orthogonalEdgeStyle;rounded=0;orthogonalLoop=1;jettySize=auto;html=1;endArrow=circlePlus;endFill=0;" edge="1" parent="eUzAyZnh72-U9IO2z-T2-70" source="8q--UgSvbUHU4zD4hHSI-64" target="d6Ak8WatT1hv87xGQhPb-382">
          <mxGeometry relative="1" as="geometry" />
        </mxCell>
        <mxCell id="8q--UgSvbUHU4zD4hHSI-64" value="&lt;&lt;enumeration&gt;&gt;&#xa;FillSpread" style="swimlane;fontStyle=2;align=center;verticalAlign=top;childLayout=stackLayout;horizontal=1;startSize=45;horizontalStack=0;resizeParent=1;resizeLast=0;collapsible=1;marginBottom=0;rounded=0;shadow=0;strokeWidth=1;" vertex="1" parent="eUzAyZnh72-U9IO2z-T2-70">
          <mxGeometry x="978.75" y="950" width="120" height="123" as="geometry">
            <mxRectangle x="230" y="140" width="160" height="26" as="alternateBounds" />
          </mxGeometry>
        </mxCell>
        <mxCell id="8q--UgSvbUHU4zD4hHSI-65" value="Pad" style="text;align=left;verticalAlign=top;spacingLeft=4;spacingRight=4;overflow=hidden;rotatable=0;points=[[0,0.5],[1,0.5]];portConstraint=eastwest;" vertex="1" parent="8q--UgSvbUHU4zD4hHSI-64">
          <mxGeometry y="45" width="120" height="26" as="geometry" />
        </mxCell>
        <mxCell id="8q--UgSvbUHU4zD4hHSI-69" value="Reflect" style="text;align=left;verticalAlign=top;spacingLeft=4;spacingRight=4;overflow=hidden;rotatable=0;points=[[0,0.5],[1,0.5]];portConstraint=eastwest;" vertex="1" parent="8q--UgSvbUHU4zD4hHSI-64">
          <mxGeometry y="71" width="120" height="26" as="geometry" />
        </mxCell>
        <mxCell id="8q--UgSvbUHU4zD4hHSI-66" value="Repeat" style="text;align=left;verticalAlign=top;spacingLeft=4;spacingRight=4;overflow=hidden;rotatable=0;points=[[0,0.5],[1,0.5]];portConstraint=eastwest;" vertex="1" parent="8q--UgSvbUHU4zD4hHSI-64">
          <mxGeometry y="97" width="120" height="26" as="geometry" />
        </mxCell>
        <mxCell id="8q--UgSvbUHU4zD4hHSI-70" value="CanvasRenderer::LinearGradient : CanvasRenderer::Fill" style="swimlane;fontStyle=2;align=center;verticalAlign=top;childLayout=stackLayout;horizontal=1;startSize=26;horizontalStack=0;resizeParent=1;resizeLast=0;collapsible=1;marginBottom=0;rounded=0;shadow=0;strokeWidth=1;" vertex="1" parent="eUzAyZnh72-U9IO2z-T2-70">
          <mxGeometry x="1160" y="803" width="330" height="137" as="geometry">
            <mxRectangle x="230" y="140" width="160" height="26" as="alternateBounds" />
          </mxGeometry>
        </mxCell>
        <mxCell id="8q--UgSvbUHU4zD4hHSI-71" value="+LinearGradient()" style="text;align=left;verticalAlign=top;spacingLeft=4;spacingRight=4;overflow=hidden;rotatable=0;points=[[0,0.5],[1,0.5]];portConstraint=eastwest;" vertex="1" parent="8q--UgSvbUHU4zD4hHSI-70">
          <mxGeometry y="26" width="330" height="26" as="geometry" />
        </mxCell>
        <mxCell id="8q--UgSvbUHU4zD4hHSI-72" value="+~LinearGradient()" style="text;align=left;verticalAlign=top;spacingLeft=4;spacingRight=4;overflow=hidden;rotatable=0;points=[[0,0.5],[1,0.5]];portConstraint=eastwest;" vertex="1" parent="8q--UgSvbUHU4zD4hHSI-70">
          <mxGeometry y="52" width="330" height="26" as="geometry" />
        </mxCell>
        <mxCell id="8q--UgSvbUHU4zD4hHSI-73" value="+SetLinearGradient(Vector2 point1, Vector2 point2):bool" style="text;align=left;verticalAlign=top;spacingLeft=4;spacingRight=4;overflow=hidden;rotatable=0;points=[[0,0.5],[1,0.5]];portConstraint=eastwest;" vertex="1" parent="8q--UgSvbUHU4zD4hHSI-70">
          <mxGeometry y="78" width="330" height="26" as="geometry" />
        </mxCell>
        <mxCell id="8q--UgSvbUHU4zD4hHSI-74" value="+GetLinearGradient(Vector2 *point1, Vector2 *point2):bool" style="text;align=left;verticalAlign=top;spacingLeft=4;spacingRight=4;overflow=hidden;rotatable=0;points=[[0,0.5],[1,0.5]];portConstraint=eastwest;" vertex="1" parent="8q--UgSvbUHU4zD4hHSI-70">
          <mxGeometry y="104" width="330" height="26" as="geometry" />
        </mxCell>
        <mxCell id="8q--UgSvbUHU4zD4hHSI-78" value="CanvasRenderer::RadialGradient : CanvasRenderer::Fill" style="swimlane;fontStyle=2;align=center;verticalAlign=top;childLayout=stackLayout;horizontal=1;startSize=26;horizontalStack=0;resizeParent=1;resizeLast=0;collapsible=1;marginBottom=0;rounded=0;shadow=0;strokeWidth=1;" vertex="1" parent="eUzAyZnh72-U9IO2z-T2-70">
          <mxGeometry x="1550" y="803" width="330" height="137" as="geometry">
            <mxRectangle x="230" y="140" width="160" height="26" as="alternateBounds" />
          </mxGeometry>
        </mxCell>
        <mxCell id="8q--UgSvbUHU4zD4hHSI-79" value="+LinearGradient()" style="text;align=left;verticalAlign=top;spacingLeft=4;spacingRight=4;overflow=hidden;rotatable=0;points=[[0,0.5],[1,0.5]];portConstraint=eastwest;" vertex="1" parent="8q--UgSvbUHU4zD4hHSI-78">
          <mxGeometry y="26" width="330" height="26" as="geometry" />
        </mxCell>
        <mxCell id="8q--UgSvbUHU4zD4hHSI-80" value="+~LinearGradient()" style="text;align=left;verticalAlign=top;spacingLeft=4;spacingRight=4;overflow=hidden;rotatable=0;points=[[0,0.5],[1,0.5]];portConstraint=eastwest;" vertex="1" parent="8q--UgSvbUHU4zD4hHSI-78">
          <mxGeometry y="52" width="330" height="26" as="geometry" />
        </mxCell>
        <mxCell id="8q--UgSvbUHU4zD4hHSI-81" value="+SetRadialGradient(Vector2 center, float radius):bool" style="text;align=left;verticalAlign=top;spacingLeft=4;spacingRight=4;overflow=hidden;rotatable=0;points=[[0,0.5],[1,0.5]];portConstraint=eastwest;" vertex="1" parent="8q--UgSvbUHU4zD4hHSI-78">
          <mxGeometry y="78" width="330" height="26" as="geometry" />
        </mxCell>
        <mxCell id="8q--UgSvbUHU4zD4hHSI-82" value="+GetRadialGradient(Vector2 *center, float *radius:bool" style="text;align=left;verticalAlign=top;spacingLeft=4;spacingRight=4;overflow=hidden;rotatable=0;points=[[0,0.5],[1,0.5]];portConstraint=eastwest;" vertex="1" parent="8q--UgSvbUHU4zD4hHSI-78">
          <mxGeometry y="104" width="330" height="26" as="geometry" />
        </mxCell>
        <mxCell id="8q--UgSvbUHU4zD4hHSI-103" style="edgeStyle=orthogonalEdgeStyle;rounded=0;orthogonalLoop=1;jettySize=auto;html=1;endArrow=none;endFill=0;" edge="1" parent="eUzAyZnh72-U9IO2z-T2-70" source="8q--UgSvbUHU4zD4hHSI-94" target="d6Ak8WatT1hv87xGQhPb-148">
          <mxGeometry relative="1" as="geometry">
            <Array as="points">
              <mxPoint x="20" y="714" />
              <mxPoint x="20" y="380" />
              <mxPoint x="681" y="380" />
            </Array>
          </mxGeometry>
        </mxCell>
        <mxCell id="8q--UgSvbUHU4zD4hHSI-94" value="CanvasRenderer::Picture : CanvasRnederer::Drawable" style="swimlane;fontStyle=2;align=center;verticalAlign=top;childLayout=stackLayout;horizontal=1;startSize=26;horizontalStack=0;resizeParent=1;resizeLast=0;collapsible=1;marginBottom=0;rounded=0;shadow=0;strokeWidth=1;" vertex="1" parent="eUzAyZnh72-U9IO2z-T2-70">
          <mxGeometry x="30" y="610" width="390" height="190" as="geometry">
            <mxRectangle x="230" y="140" width="160" height="26" as="alternateBounds" />
          </mxGeometry>
        </mxCell>
        <mxCell id="8q--UgSvbUHU4zD4hHSI-95" value="+New():Dali:Adaptor:Picture" style="text;align=left;verticalAlign=top;spacingLeft=4;spacingRight=4;overflow=hidden;rotatable=0;points=[[0,0.5],[1,0.5]];portConstraint=eastwest;" vertex="1" parent="8q--UgSvbUHU4zD4hHSI-94">
          <mxGeometry y="26" width="390" height="26" as="geometry" />
        </mxCell>
        <mxCell id="8q--UgSvbUHU4zD4hHSI-96" value="+Picture()" style="text;align=left;verticalAlign=top;spacingLeft=4;spacingRight=4;overflow=hidden;rotatable=0;points=[[0,0.5],[1,0.5]];portConstraint=eastwest;" vertex="1" parent="8q--UgSvbUHU4zD4hHSI-94">
          <mxGeometry y="52" width="390" height="26" as="geometry" />
        </mxCell>
        <mxCell id="8q--UgSvbUHU4zD4hHSI-97" value="+~Picture()" style="text;align=left;verticalAlign=top;spacingLeft=4;spacingRight=4;overflow=hidden;rotatable=0;points=[[0,0.5],[1,0.5]];portConstraint=eastwest;" vertex="1" parent="8q--UgSvbUHU4zD4hHSI-94">
          <mxGeometry y="78" width="390" height="26" as="geometry" />
        </mxCell>
        <mxCell id="8q--UgSvbUHU4zD4hHSI-98" value="+Load(String path):bool" style="text;align=left;verticalAlign=top;spacingLeft=4;spacingRight=4;overflow=hidden;rotatable=0;points=[[0,0.5],[1,0.5]];portConstraint=eastwest;" vertex="1" parent="8q--UgSvbUHU4zD4hHSI-94">
          <mxGeometry y="104" width="390" height="26" as="geometry" />
        </mxCell>
        <mxCell id="8q--UgSvbUHU4zD4hHSI-99" value="+SetSize(Vector2 size):bool" style="text;align=left;verticalAlign=top;spacingLeft=4;spacingRight=4;overflow=hidden;rotatable=0;points=[[0,0.5],[1,0.5]];portConstraint=eastwest;" vertex="1" parent="8q--UgSvbUHU4zD4hHSI-94">
          <mxGeometry y="130" width="390" height="26" as="geometry" />
        </mxCell>
        <mxCell id="8q--UgSvbUHU4zD4hHSI-101" value="+GetSize():Vector2" style="text;align=left;verticalAlign=top;spacingLeft=4;spacingRight=4;overflow=hidden;rotatable=0;points=[[0,0.5],[1,0.5]];portConstraint=eastwest;" vertex="1" parent="8q--UgSvbUHU4zD4hHSI-94">
          <mxGeometry y="156" width="390" height="26" as="geometry" />
        </mxCell>
        <mxCell id="8q--UgSvbUHU4zD4hHSI-235" style="edgeStyle=orthogonalEdgeStyle;rounded=0;orthogonalLoop=1;jettySize=auto;html=1;endArrow=none;endFill=0;" edge="1" parent="eUzAyZnh72-U9IO2z-T2-70" source="8q--UgSvbUHU4zD4hHSI-106" target="d6Ak8WatT1hv87xGQhPb-382">
          <mxGeometry relative="1" as="geometry" />
        </mxCell>
        <mxCell id="8q--UgSvbUHU4zD4hHSI-106" value="&lt;&lt;enumeration&gt;&gt;&#xa;PathCommand" style="swimlane;fontStyle=2;align=center;verticalAlign=top;childLayout=stackLayout;horizontal=1;startSize=45;horizontalStack=0;resizeParent=1;resizeLast=0;collapsible=1;marginBottom=0;rounded=0;shadow=0;strokeWidth=1;" vertex="1" parent="eUzAyZnh72-U9IO2z-T2-70">
          <mxGeometry x="978.75" y="1090" width="120" height="149" as="geometry">
            <mxRectangle x="230" y="140" width="160" height="26" as="alternateBounds" />
          </mxGeometry>
        </mxCell>
        <mxCell id="8q--UgSvbUHU4zD4hHSI-107" value="Close" style="text;align=left;verticalAlign=top;spacingLeft=4;spacingRight=4;overflow=hidden;rotatable=0;points=[[0,0.5],[1,0.5]];portConstraint=eastwest;" vertex="1" parent="8q--UgSvbUHU4zD4hHSI-106">
          <mxGeometry y="45" width="120" height="26" as="geometry" />
        </mxCell>
        <mxCell id="8q--UgSvbUHU4zD4hHSI-108" value="MoveTo" style="text;align=left;verticalAlign=top;spacingLeft=4;spacingRight=4;overflow=hidden;rotatable=0;points=[[0,0.5],[1,0.5]];portConstraint=eastwest;" vertex="1" parent="8q--UgSvbUHU4zD4hHSI-106">
          <mxGeometry y="71" width="120" height="26" as="geometry" />
        </mxCell>
        <mxCell id="8q--UgSvbUHU4zD4hHSI-234" value="LineTo" style="text;align=left;verticalAlign=top;spacingLeft=4;spacingRight=4;overflow=hidden;rotatable=0;points=[[0,0.5],[1,0.5]];portConstraint=eastwest;" vertex="1" parent="8q--UgSvbUHU4zD4hHSI-106">
          <mxGeometry y="97" width="120" height="26" as="geometry" />
        </mxCell>
        <mxCell id="8q--UgSvbUHU4zD4hHSI-109" value="CubicTo" style="text;align=left;verticalAlign=top;spacingLeft=4;spacingRight=4;overflow=hidden;rotatable=0;points=[[0,0.5],[1,0.5]];portConstraint=eastwest;" vertex="1" parent="8q--UgSvbUHU4zD4hHSI-106">
          <mxGeometry y="123" width="120" height="26" as="geometry" />
        </mxCell>
        <mxCell id="d6Ak8WatT1hv87xGQhPb-104" value="Dali::Toolkit" style="shape=folder;fontStyle=1;tabWidth=110;tabHeight=30;tabPosition=left;html=1;boundedLbl=1;labelInHeader=1;container=1;collapsible=0;recursiveResize=0;" parent="d6Ak8WatT1hv87xGQhPb-93" vertex="1">
          <mxGeometry x="40" y="60" width="450" height="560" as="geometry" />
        </mxCell>
        <mxCell id="d6Ak8WatT1hv87xGQhPb-115" value="CanvasView : Control" style="swimlane;fontStyle=2;align=center;verticalAlign=top;childLayout=stackLayout;horizontal=1;startSize=26;horizontalStack=0;resizeParent=1;resizeLast=0;collapsible=1;marginBottom=0;rounded=0;shadow=0;strokeWidth=1;" parent="d6Ak8WatT1hv87xGQhPb-104" vertex="1">
          <mxGeometry x="20" y="40" width="400" height="120" as="geometry">
            <mxRectangle x="230" y="140" width="160" height="26" as="alternateBounds" />
          </mxGeometry>
        </mxCell>
        <mxCell id="d6Ak8WatT1hv87xGQhPb-116" value="-Control(Internal::CanvasView*)" style="text;align=left;verticalAlign=top;spacingLeft=4;spacingRight=4;overflow=hidden;rotatable=0;points=[[0,0.5],[1,0.5]];portConstraint=eastwest;" parent="d6Ak8WatT1hv87xGQhPb-115" vertex="1">
          <mxGeometry y="26" width="400" height="26" as="geometry" />
        </mxCell>
        <mxCell id="d6Ak8WatT1hv87xGQhPb-117" value="" style="line;html=1;strokeWidth=1;align=left;verticalAlign=middle;spacingTop=-1;spacingLeft=3;spacingRight=3;rotatable=0;labelPosition=right;points=[];portConstraint=eastwest;" parent="d6Ak8WatT1hv87xGQhPb-115" vertex="1">
          <mxGeometry y="52" width="400" height="8" as="geometry" />
        </mxCell>
        <mxCell id="d6Ak8WatT1hv87xGQhPb-118" value="+New(Vector2 viewBox):CanvasView" style="text;align=left;verticalAlign=top;spacingLeft=4;spacingRight=4;overflow=hidden;rotatable=0;points=[[0,0.5],[1,0.5]];portConstraint=eastwest;" parent="d6Ak8WatT1hv87xGQhPb-115" vertex="1">
          <mxGeometry y="60" width="400" height="26" as="geometry" />
        </mxCell>
        <mxCell id="d6Ak8WatT1hv87xGQhPb-119" value="+AddDrawable(Dali::CanvasRenderer::Drawable drawable):void" style="text;align=left;verticalAlign=top;spacingLeft=4;spacingRight=4;overflow=hidden;rotatable=0;points=[[0,0.5],[1,0.5]];portConstraint=eastwest;" parent="d6Ak8WatT1hv87xGQhPb-115" vertex="1">
          <mxGeometry y="86" width="400" height="26" as="geometry" />
        </mxCell>
        <mxCell id="d6Ak8WatT1hv87xGQhPb-120" value="" style="endArrow=none;html=1;strokeWidth=1;endFill=0;" parent="d6Ak8WatT1hv87xGQhPb-104" source="d6Ak8WatT1hv87xGQhPb-115" target="d6Ak8WatT1hv87xGQhPb-106" edge="1">
          <mxGeometry width="50" height="50" relative="1" as="geometry">
            <mxPoint x="460" y="300" as="sourcePoint" />
            <mxPoint x="510" y="250" as="targetPoint" />
          </mxGeometry>
        </mxCell>
        <mxCell id="d6Ak8WatT1hv87xGQhPb-121" value="Impl" style="edgeLabel;html=1;align=center;verticalAlign=middle;resizable=0;points=[];" parent="d6Ak8WatT1hv87xGQhPb-120" vertex="1" connectable="0">
          <mxGeometry x="0.7844" y="3" relative="1" as="geometry">
            <mxPoint x="-14.07" y="20.290000000000003" as="offset" />
          </mxGeometry>
        </mxCell>
        <mxCell id="d6Ak8WatT1hv87xGQhPb-106" value="Internal::CanvasView : BaseHandle, Integration::Processor" style="swimlane;fontStyle=2;align=center;verticalAlign=top;childLayout=stackLayout;horizontal=1;startSize=26;horizontalStack=0;resizeParent=1;resizeLast=0;collapsible=1;marginBottom=0;rounded=0;shadow=0;strokeWidth=1;" parent="d6Ak8WatT1hv87xGQhPb-104" vertex="1">
          <mxGeometry x="20" y="220" width="400" height="294" as="geometry">
            <mxRectangle x="230" y="140" width="160" height="26" as="alternateBounds" />
          </mxGeometry>
        </mxCell>
        <mxCell id="d6Ak8WatT1hv87xGQhPb-123" value="-mCanvasViewRenderer:Dali::Adaptor::CanvasViewRenderer" style="text;align=left;verticalAlign=top;spacingLeft=4;spacingRight=4;overflow=hidden;rotatable=0;points=[[0,0.5],[1,0.5]];portConstraint=eastwest;" parent="d6Ak8WatT1hv87xGQhPb-106" vertex="1">
          <mxGeometry y="26" width="400" height="26" as="geometry" />
        </mxCell>
        <mxCell id="d6Ak8WatT1hv87xGQhPb-107" value="-mTexture:Dali::Texture" style="text;align=left;verticalAlign=top;spacingLeft=4;spacingRight=4;overflow=hidden;rotatable=0;points=[[0,0.5],[1,0.5]];portConstraint=eastwest;" parent="d6Ak8WatT1hv87xGQhPb-106" vertex="1">
          <mxGeometry y="52" width="400" height="26" as="geometry" />
        </mxCell>
        <mxCell id="d6Ak8WatT1hv87xGQhPb-124" value="-mChanged:bool" style="text;align=left;verticalAlign=top;spacingLeft=4;spacingRight=4;overflow=hidden;rotatable=0;points=[[0,0.5],[1,0.5]];portConstraint=eastwest;" parent="d6Ak8WatT1hv87xGQhPb-106" vertex="1">
          <mxGeometry y="78" width="400" height="26" as="geometry" />
        </mxCell>
        <mxCell id="d6Ak8WatT1hv87xGQhPb-108" value="" style="line;html=1;strokeWidth=1;align=left;verticalAlign=middle;spacingTop=-1;spacingLeft=3;spacingRight=3;rotatable=0;labelPosition=right;points=[];portConstraint=eastwest;" parent="d6Ak8WatT1hv87xGQhPb-106" vertex="1">
          <mxGeometry y="104" width="400" height="8" as="geometry" />
        </mxCell>
        <mxCell id="d6Ak8WatT1hv87xGQhPb-109" value="+New(Vector2):CanvasView" style="text;align=left;verticalAlign=top;spacingLeft=4;spacingRight=4;overflow=hidden;rotatable=0;points=[[0,0.5],[1,0.5]];portConstraint=eastwest;" parent="d6Ak8WatT1hv87xGQhPb-106" vertex="1">
          <mxGeometry y="112" width="400" height="26" as="geometry" />
        </mxCell>
        <mxCell id="d6Ak8WatT1hv87xGQhPb-110" value="+AddDrawable(Dali::CanvasRenderer::Drawable drawable):bool" style="text;align=left;verticalAlign=top;spacingLeft=4;spacingRight=4;overflow=hidden;rotatable=0;points=[[0,0.5],[1,0.5]];portConstraint=eastwest;" parent="d6Ak8WatT1hv87xGQhPb-106" vertex="1">
          <mxGeometry y="138" width="400" height="26" as="geometry" />
        </mxCell>
        <mxCell id="d6Ak8WatT1hv87xGQhPb-111" value="-OnRelayout(Vector2, RelayoutContainer):void override" style="text;align=left;verticalAlign=top;spacingLeft=4;spacingRight=4;overflow=hidden;rotatable=0;points=[[0,0.5],[1,0.5]];portConstraint=eastwest;" parent="d6Ak8WatT1hv87xGQhPb-106" vertex="1">
          <mxGeometry y="164" width="400" height="26" as="geometry" />
        </mxCell>
        <mxCell id="d6Ak8WatT1hv87xGQhPb-112" value="-OnSizeSet(Vector3):void override" style="text;align=left;verticalAlign=top;spacingLeft=4;spacingRight=4;overflow=hidden;rotatable=0;points=[[0,0.5],[1,0.5]];portConstraint=eastwest;" parent="d6Ak8WatT1hv87xGQhPb-106" vertex="1">
          <mxGeometry y="190" width="400" height="26" as="geometry" />
        </mxCell>
        <mxCell id="d6Ak8WatT1hv87xGQhPb-113" value="-OnInitialize():void override" style="text;align=left;verticalAlign=top;spacingLeft=4;spacingRight=4;overflow=hidden;rotatable=0;points=[[0,0.5],[1,0.5]];portConstraint=eastwest;" parent="d6Ak8WatT1hv87xGQhPb-106" vertex="1">
          <mxGeometry y="216" width="400" height="26" as="geometry" />
        </mxCell>
        <mxCell id="d6Ak8WatT1hv87xGQhPb-114" value="-Process():void override" style="text;align=left;verticalAlign=top;spacingLeft=4;spacingRight=4;overflow=hidden;rotatable=0;points=[[0,0.5],[1,0.5]];portConstraint=eastwest;" parent="d6Ak8WatT1hv87xGQhPb-106" vertex="1">
          <mxGeometry y="242" width="400" height="26" as="geometry" />
        </mxCell>
        <mxCell id="d6Ak8WatT1hv87xGQhPb-122" value="-Commit():void" style="text;align=left;verticalAlign=top;spacingLeft=4;spacingRight=4;overflow=hidden;rotatable=0;points=[[0,0.5],[1,0.5]];portConstraint=eastwest;" parent="d6Ak8WatT1hv87xGQhPb-106" vertex="1">
          <mxGeometry y="268" width="400" height="26" as="geometry" />
        </mxCell>
        <mxCell id="8q--UgSvbUHU4zD4hHSI-39" value="&lt;&lt;enumeration&gt;&gt;&#xa;CompositeType" style="swimlane;fontStyle=2;align=center;verticalAlign=top;childLayout=stackLayout;horizontal=1;startSize=45;horizontalStack=0;resizeParent=1;resizeLast=0;collapsible=1;marginBottom=0;rounded=0;shadow=0;strokeWidth=1;" vertex="1" parent="WIyWlLk6GJQsqaUBKTNV-1">
          <mxGeometry x="1090" y="-510" width="120" height="123" as="geometry">
            <mxRectangle x="230" y="140" width="160" height="26" as="alternateBounds" />
          </mxGeometry>
        </mxCell>
        <mxCell id="8q--UgSvbUHU4zD4hHSI-40" value="ClipPath" style="text;align=left;verticalAlign=top;spacingLeft=4;spacingRight=4;overflow=hidden;rotatable=0;points=[[0,0.5],[1,0.5]];portConstraint=eastwest;" vertex="1" parent="8q--UgSvbUHU4zD4hHSI-39">
          <mxGeometry y="45" width="120" height="26" as="geometry" />
        </mxCell>
        <mxCell id="8q--UgSvbUHU4zD4hHSI-41" value="AlphaMask&#xa;" style="text;align=left;verticalAlign=top;spacingLeft=4;spacingRight=4;overflow=hidden;rotatable=0;points=[[0,0.5],[1,0.5]];portConstraint=eastwest;" vertex="1" parent="8q--UgSvbUHU4zD4hHSI-39">
          <mxGeometry y="71" width="120" height="26" as="geometry" />
        </mxCell>
        <mxCell id="8q--UgSvbUHU4zD4hHSI-43" value="InverseAlphaMask" style="text;align=left;verticalAlign=top;spacingLeft=4;spacingRight=4;overflow=hidden;rotatable=0;points=[[0,0.5],[1,0.5]];portConstraint=eastwest;" vertex="1" parent="8q--UgSvbUHU4zD4hHSI-39">
          <mxGeometry y="97" width="120" height="26" as="geometry" />
        </mxCell>
        <mxCell id="8q--UgSvbUHU4zD4hHSI-42" style="edgeStyle=orthogonalEdgeStyle;rounded=0;orthogonalLoop=1;jettySize=auto;html=1;endArrow=circlePlus;endFill=0;" edge="1" parent="WIyWlLk6GJQsqaUBKTNV-1" source="8q--UgSvbUHU4zD4hHSI-40" target="d6Ak8WatT1hv87xGQhPb-148">
          <mxGeometry relative="1" as="geometry" />
        </mxCell>
        <mxCell id="8q--UgSvbUHU4zD4hHSI-87" style="edgeStyle=orthogonalEdgeStyle;rounded=0;orthogonalLoop=1;jettySize=auto;html=1;endArrow=none;endFill=0;" edge="1" parent="WIyWlLk6GJQsqaUBKTNV-1" source="8q--UgSvbUHU4zD4hHSI-45" target="8q--UgSvbUHU4zD4hHSI-84">
          <mxGeometry relative="1" as="geometry">
            <Array as="points">
              <mxPoint x="1310" />
              <mxPoint x="1310" y="610" />
              <mxPoint x="590" y="610" />
              <mxPoint x="590" y="452" />
            </Array>
          </mxGeometry>
        </mxCell>
        <mxCell id="8q--UgSvbUHU4zD4hHSI-45" value="CanvasRenderer::Fill" style="swimlane;fontStyle=2;align=center;verticalAlign=top;childLayout=stackLayout;horizontal=1;startSize=26;horizontalStack=0;resizeParent=1;resizeLast=0;collapsible=1;marginBottom=0;rounded=0;shadow=0;strokeWidth=1;" vertex="1" parent="WIyWlLk6GJQsqaUBKTNV-1">
          <mxGeometry x="1520" y="-100" width="362.5" height="200" as="geometry">
            <mxRectangle x="230" y="140" width="160" height="26" as="alternateBounds" />
          </mxGeometry>
        </mxCell>
        <mxCell id="8q--UgSvbUHU4zD4hHSI-46" value="+Fill()" style="text;align=left;verticalAlign=top;spacingLeft=4;spacingRight=4;overflow=hidden;rotatable=0;points=[[0,0.5],[1,0.5]];portConstraint=eastwest;" vertex="1" parent="8q--UgSvbUHU4zD4hHSI-45">
          <mxGeometry y="26" width="362.5" height="26" as="geometry" />
        </mxCell>
        <mxCell id="8q--UgSvbUHU4zD4hHSI-47" value="+~Fill()" style="text;align=left;verticalAlign=top;spacingLeft=4;spacingRight=4;overflow=hidden;rotatable=0;points=[[0,0.5],[1,0.5]];portConstraint=eastwest;" vertex="1" parent="8q--UgSvbUHU4zD4hHSI-45">
          <mxGeometry y="52" width="362.5" height="26" as="geometry" />
        </mxCell>
        <mxCell id="8q--UgSvbUHU4zD4hHSI-49" value="+SetColorStops(Dali::Vector&lt;Fill::ColorStop&gt;):bool" style="text;align=left;verticalAlign=top;spacingLeft=4;spacingRight=4;overflow=hidden;rotatable=0;points=[[0,0.5],[1,0.5]];portConstraint=eastwest;" vertex="1" parent="8q--UgSvbUHU4zD4hHSI-45">
          <mxGeometry y="78" width="362.5" height="26" as="geometry" />
        </mxCell>
        <mxCell id="8q--UgSvbUHU4zD4hHSI-50" value="+SetSpread(FillSpread):bool" style="text;align=left;verticalAlign=top;spacingLeft=4;spacingRight=4;overflow=hidden;rotatable=0;points=[[0,0.5],[1,0.5]];portConstraint=eastwest;" vertex="1" parent="8q--UgSvbUHU4zD4hHSI-45">
          <mxGeometry y="104" width="362.5" height="26" as="geometry" />
        </mxCell>
        <mxCell id="8q--UgSvbUHU4zD4hHSI-51" value="+GetColorStops():Dali::Vector&lt;Fill::ColorStop&gt;" style="text;align=left;verticalAlign=top;spacingLeft=4;spacingRight=4;overflow=hidden;rotatable=0;points=[[0,0.5],[1,0.5]];portConstraint=eastwest;" vertex="1" parent="8q--UgSvbUHU4zD4hHSI-45">
          <mxGeometry y="130" width="362.5" height="26" as="geometry" />
        </mxCell>
        <mxCell id="8q--UgSvbUHU4zD4hHSI-52" value="+GetSpread():FillSpread" style="text;align=left;verticalAlign=top;spacingLeft=4;spacingRight=4;overflow=hidden;rotatable=0;points=[[0,0.5],[1,0.5]];portConstraint=eastwest;" vertex="1" parent="8q--UgSvbUHU4zD4hHSI-45">
          <mxGeometry y="156" width="362.5" height="26" as="geometry" />
        </mxCell>
        <mxCell id="8q--UgSvbUHU4zD4hHSI-63" style="edgeStyle=orthogonalEdgeStyle;rounded=0;orthogonalLoop=1;jettySize=auto;html=1;endArrow=circlePlus;endFill=0;" edge="1" parent="WIyWlLk6GJQsqaUBKTNV-1" source="8q--UgSvbUHU4zD4hHSI-57" target="8q--UgSvbUHU4zD4hHSI-45">
          <mxGeometry relative="1" as="geometry" />
        </mxCell>
        <mxCell id="8q--UgSvbUHU4zD4hHSI-77" style="edgeStyle=orthogonalEdgeStyle;rounded=0;orthogonalLoop=1;jettySize=auto;html=1;endArrow=block;endFill=0;" edge="1" parent="WIyWlLk6GJQsqaUBKTNV-1" source="8q--UgSvbUHU4zD4hHSI-70" target="8q--UgSvbUHU4zD4hHSI-45">
          <mxGeometry relative="1" as="geometry" />
        </mxCell>
        <mxCell id="8q--UgSvbUHU4zD4hHSI-86" style="edgeStyle=orthogonalEdgeStyle;rounded=0;orthogonalLoop=1;jettySize=auto;html=1;endArrow=block;endFill=0;" edge="1" parent="WIyWlLk6GJQsqaUBKTNV-1" source="8q--UgSvbUHU4zD4hHSI-78" target="8q--UgSvbUHU4zD4hHSI-45">
          <mxGeometry relative="1" as="geometry" />
        </mxCell>
      </root>
    </mxGraphModel>
  </diagram>
</mxfile>
